<svg width="572" height="143" viewBox="0 0 572 143" fill="none" xmlns="http://www.w3.org/2000/svg">
<g clip-path="url(#clip0_339_3060)">
<path d="M0 24C0 10.7452 10.7452 0 24 0H548C561.255 0 572 10.7452 572 24V143H0V24Z" fill="#F2F2F2"/>
<circle cx="289.5" cy="284.5" r="278" stroke="#CACACA"/>
<circle cx="208.5" cy="258.5" r="278" stroke="#CACACA"/>
<path d="M233.528 70V40.9091H239.679V64.929H252.151V70H233.528ZM265.968 70.4261C263.762 70.4261 261.853 69.9574 260.244 69.0199C258.643 68.0729 257.407 66.7566 256.536 65.071C255.665 63.3759 255.229 61.411 255.229 59.1761C255.229 56.9223 255.665 54.9527 256.536 53.267C257.407 51.572 258.643 50.2557 260.244 49.3182C261.853 48.3712 263.762 47.8977 265.968 47.8977C268.174 47.8977 270.078 48.3712 271.678 49.3182C273.288 50.2557 274.529 51.572 275.4 53.267C276.271 54.9527 276.707 56.9223 276.707 59.1761C276.707 61.411 276.271 63.3759 275.4 65.071C274.529 66.7566 273.288 68.0729 271.678 69.0199C270.078 69.9574 268.174 70.4261 265.968 70.4261ZM265.996 65.7386C267 65.7386 267.838 65.4545 268.511 64.8864C269.183 64.3087 269.69 63.5227 270.031 62.5284C270.381 61.5341 270.556 60.4025 270.556 59.1335C270.556 57.8646 270.381 56.733 270.031 55.7386C269.69 54.7443 269.183 53.9583 268.511 53.3807C267.838 52.803 267 52.5142 265.996 52.5142C264.983 52.5142 264.131 52.803 263.44 53.3807C262.758 53.9583 262.242 54.7443 261.891 55.7386C261.55 56.733 261.38 57.8646 261.38 59.1335C261.38 60.4025 261.55 61.5341 261.891 62.5284C262.242 63.5227 262.758 64.3087 263.44 64.8864C264.131 65.4545 264.983 65.7386 265.996 65.7386ZM290.471 78.6364C288.511 78.6364 286.83 78.3665 285.428 77.8267C284.036 77.2964 282.928 76.572 282.104 75.6534C281.281 74.7348 280.746 73.7027 280.499 72.5568L286.096 71.804C286.266 72.2396 286.536 72.6468 286.906 73.0256C287.275 73.4044 287.763 73.7074 288.369 73.9347C288.984 74.1714 289.732 74.2898 290.613 74.2898C291.929 74.2898 293.013 73.9678 293.866 73.3239C294.728 72.6894 295.158 71.6241 295.158 70.1278V66.1364H294.903C294.638 66.7424 294.24 67.3153 293.71 67.8551C293.179 68.3949 292.497 68.8352 291.664 69.1761C290.831 69.517 289.836 69.6875 288.681 69.6875C287.043 69.6875 285.551 69.3087 284.207 68.5511C282.871 67.7841 281.806 66.6146 281.011 65.0426C280.225 63.4612 279.832 61.4631 279.832 59.0483C279.832 56.5767 280.234 54.5123 281.039 52.8551C281.844 51.1979 282.914 49.9574 284.249 49.1335C285.594 48.3097 287.067 47.8977 288.667 47.8977C289.888 47.8977 290.911 48.1061 291.735 48.5227C292.559 48.9299 293.222 49.4413 293.724 50.0568C294.235 50.6629 294.628 51.2595 294.903 51.8466H295.13V48.1818H301.138V70.2131C301.138 72.0691 300.684 73.6222 299.775 74.8722C298.866 76.1222 297.606 77.0597 295.996 77.6847C294.396 78.3191 292.554 78.6364 290.471 78.6364ZM290.599 65.142C291.574 65.142 292.398 64.9006 293.07 64.4176C293.752 63.9252 294.273 63.2244 294.633 62.3153C295.002 61.3968 295.187 60.2983 295.187 59.0199C295.187 57.7415 295.007 56.6335 294.647 55.696C294.287 54.7491 293.766 54.0152 293.085 53.4943C292.403 52.9735 291.574 52.7131 290.599 52.7131C289.604 52.7131 288.766 52.983 288.085 53.5227C287.403 54.053 286.887 54.7917 286.536 55.7386C286.186 56.6856 286.011 57.7794 286.011 59.0199C286.011 60.2794 286.186 61.3684 286.536 62.2869C286.896 63.196 287.412 63.9015 288.085 64.4034C288.766 64.8958 289.604 65.142 290.599 65.142ZM305.954 70V48.1818H312.005V70H305.954ZM308.994 45.3693C308.094 45.3693 307.322 45.071 306.678 44.4744C306.044 43.8684 305.727 43.1439 305.727 42.3011C305.727 41.4678 306.044 40.7528 306.678 40.1562C307.322 39.5502 308.094 39.2472 308.994 39.2472C309.893 39.2472 310.66 39.5502 311.295 40.1562C311.939 40.7528 312.261 41.4678 312.261 42.3011C312.261 43.1439 311.939 43.8684 311.295 44.4744C310.66 45.071 309.893 45.3693 308.994 45.3693ZM322.903 57.3864V70H316.852V48.1818H322.619V52.0312H322.875C323.358 50.7623 324.168 49.7585 325.304 49.0199C326.44 48.2718 327.818 47.8977 329.438 47.8977C330.953 47.8977 332.274 48.2292 333.401 48.892C334.527 49.5549 335.403 50.5019 336.028 51.733C336.653 52.9545 336.966 54.4129 336.966 56.108V70H330.915V57.1875C330.924 55.8523 330.583 54.8106 329.892 54.0625C329.201 53.3049 328.249 52.9261 327.037 52.9261C326.223 52.9261 325.503 53.1013 324.878 53.4517C324.262 53.8021 323.779 54.3134 323.429 54.9858C323.088 55.6487 322.913 56.4489 322.903 57.3864Z" fill="black"/>
<path d="M106.298 100.045C106.174 99.657 106.008 99.3097 105.799 99.0028C105.594 98.6918 105.349 98.4276 105.064 98.2102C104.778 97.9886 104.452 97.8203 104.086 97.7053C103.724 97.5902 103.325 97.5327 102.891 97.5327C102.153 97.5327 101.489 97.7223 100.896 98.1016C100.304 98.4808 99.8352 99.0369 99.4901 99.7699C99.1491 100.499 98.9787 101.391 98.9787 102.448C98.9787 103.509 99.1513 104.406 99.4964 105.139C99.8416 105.872 100.315 106.428 100.915 106.808C101.516 107.187 102.2 107.376 102.967 107.376C103.679 107.376 104.299 107.232 104.827 106.942C105.36 106.652 105.771 106.243 106.061 105.714C106.355 105.182 106.502 104.555 106.502 103.835L107.013 103.931H103.268V102.301H108.413V103.79C108.413 104.89 108.179 105.844 107.71 106.654C107.246 107.46 106.602 108.082 105.78 108.521C104.962 108.96 104.024 109.179 102.967 109.179C101.783 109.179 100.743 108.906 99.848 108.361C98.9574 107.815 98.2628 107.042 97.7642 106.04C97.2656 105.035 97.0163 103.842 97.0163 102.461C97.0163 101.417 97.1612 100.479 97.451 99.6484C97.7408 98.8175 98.1477 98.1122 98.6719 97.5327C99.2003 96.9489 99.8203 96.5036 100.532 96.1967C101.248 95.8857 102.03 95.7301 102.878 95.7301C103.585 95.7301 104.244 95.8345 104.853 96.0433C105.467 96.2521 106.012 96.5483 106.489 96.9318C106.971 97.3153 107.369 97.7713 107.685 98.2997C108 98.8239 108.213 99.4055 108.324 100.045H106.298ZM114.999 109.198C114.031 109.198 113.198 108.991 112.499 108.578C111.805 108.161 111.268 107.575 110.889 106.82C110.514 106.062 110.326 105.173 110.326 104.155C110.326 103.149 110.514 102.263 110.889 101.496C111.268 100.729 111.796 100.13 112.474 99.6996C113.156 99.2692 113.953 99.054 114.865 99.054C115.419 99.054 115.955 99.1456 116.475 99.3288C116.995 99.5121 117.462 99.7997 117.875 100.192C118.289 100.584 118.615 101.093 118.853 101.719C119.092 102.342 119.211 103.098 119.211 103.989V104.666H111.406V103.234H117.338C117.338 102.732 117.236 102.286 117.031 101.898C116.827 101.506 116.539 101.197 116.169 100.972C115.802 100.746 115.372 100.633 114.877 100.633C114.34 100.633 113.872 100.765 113.471 101.029C113.075 101.289 112.768 101.63 112.551 102.052C112.338 102.469 112.231 102.923 112.231 103.413V104.532C112.231 105.188 112.346 105.746 112.576 106.207C112.811 106.667 113.137 107.018 113.554 107.261C113.972 107.5 114.46 107.619 115.018 107.619C115.38 107.619 115.71 107.568 116.009 107.466C116.307 107.359 116.565 107.202 116.782 106.993C116.999 106.784 117.166 106.526 117.281 106.219L119.09 106.545C118.945 107.078 118.685 107.545 118.31 107.945C117.939 108.342 117.472 108.651 116.91 108.872C116.352 109.089 115.715 109.198 114.999 109.198ZM125.915 99.1818V100.716H120.552V99.1818H125.915ZM121.99 96.8295H123.901V106.117C123.901 106.488 123.957 106.767 124.067 106.955C124.178 107.138 124.321 107.263 124.496 107.332C124.675 107.396 124.869 107.428 125.077 107.428C125.231 107.428 125.365 107.417 125.48 107.396C125.595 107.374 125.685 107.357 125.749 107.344L126.094 108.923C125.983 108.966 125.825 109.009 125.621 109.051C125.416 109.098 125.161 109.124 124.854 109.128C124.351 109.136 123.882 109.047 123.447 108.859C123.013 108.672 122.661 108.382 122.393 107.99C122.124 107.598 121.99 107.106 121.99 106.513V96.8295ZM140.15 101.579L138.418 101.886C138.345 101.664 138.23 101.453 138.072 101.253C137.919 101.053 137.71 100.888 137.446 100.761C137.182 100.633 136.852 100.569 136.455 100.569C135.914 100.569 135.462 100.69 135.1 100.933C134.738 101.172 134.557 101.481 134.557 101.86C134.557 102.188 134.678 102.452 134.921 102.653C135.164 102.853 135.556 103.017 136.097 103.145L137.657 103.503C138.56 103.712 139.234 104.033 139.677 104.468C140.12 104.903 140.342 105.467 140.342 106.162C140.342 106.75 140.171 107.274 139.83 107.734C139.494 108.19 139.023 108.548 138.418 108.808C137.817 109.068 137.12 109.198 136.327 109.198C135.228 109.198 134.331 108.964 133.636 108.495C132.942 108.022 132.516 107.351 132.358 106.482L134.205 106.2C134.32 106.682 134.557 107.046 134.915 107.293C135.273 107.536 135.739 107.658 136.315 107.658C136.941 107.658 137.442 107.528 137.817 107.268C138.192 107.004 138.379 106.682 138.379 106.303C138.379 105.996 138.264 105.738 138.034 105.529C137.808 105.32 137.461 105.163 136.992 105.056L135.33 104.692C134.414 104.483 133.737 104.151 133.298 103.695C132.863 103.239 132.646 102.661 132.646 101.962C132.646 101.383 132.808 100.876 133.131 100.441C133.455 100.006 133.903 99.6676 134.474 99.4247C135.045 99.1776 135.699 99.054 136.436 99.054C137.497 99.054 138.332 99.2841 138.942 99.7443C139.551 100.2 139.954 100.812 140.15 101.579ZM147.026 99.1818V100.716H141.663V99.1818H147.026ZM143.101 96.8295H145.013V106.117C145.013 106.488 145.068 106.767 145.179 106.955C145.29 107.138 145.432 107.263 145.607 107.332C145.786 107.396 145.98 107.428 146.189 107.428C146.342 107.428 146.476 107.417 146.591 107.396C146.706 107.374 146.796 107.357 146.86 107.344L147.205 108.923C147.094 108.966 146.937 109.009 146.732 109.051C146.528 109.098 146.272 109.124 145.965 109.128C145.462 109.136 144.993 109.047 144.559 108.859C144.124 108.672 143.773 108.382 143.504 107.99C143.236 107.598 143.101 107.106 143.101 106.513V96.8295ZM151.998 109.217C151.375 109.217 150.813 109.102 150.31 108.872C149.807 108.638 149.409 108.299 149.115 107.856C148.825 107.413 148.68 106.869 148.68 106.226C148.68 105.672 148.787 105.216 149 104.858C149.213 104.5 149.5 104.217 149.863 104.008C150.225 103.799 150.63 103.641 151.077 103.535C151.525 103.428 151.98 103.347 152.445 103.292C153.033 103.224 153.51 103.168 153.877 103.126C154.243 103.079 154.51 103.004 154.676 102.902C154.842 102.8 154.925 102.634 154.925 102.403V102.359C154.925 101.8 154.767 101.368 154.452 101.061C154.141 100.754 153.676 100.601 153.059 100.601C152.415 100.601 151.908 100.744 151.537 101.029C151.171 101.31 150.917 101.624 150.777 101.969L148.98 101.56C149.194 100.963 149.505 100.482 149.914 100.115C150.327 99.7443 150.802 99.4759 151.339 99.3097C151.876 99.1392 152.441 99.054 153.033 99.054C153.425 99.054 153.841 99.1009 154.279 99.1946C154.723 99.2841 155.136 99.4503 155.52 99.6932C155.907 99.9361 156.225 100.283 156.472 100.735C156.719 101.183 156.843 101.764 156.843 102.48V109H154.976V107.658H154.9C154.776 107.905 154.591 108.148 154.343 108.386C154.096 108.625 153.779 108.823 153.391 108.981C153.003 109.138 152.539 109.217 151.998 109.217ZM152.413 107.683C152.941 107.683 153.393 107.579 153.768 107.37C154.147 107.161 154.435 106.888 154.631 106.552C154.831 106.211 154.931 105.847 154.931 105.459V104.193C154.863 104.261 154.731 104.325 154.535 104.385C154.343 104.44 154.124 104.489 153.877 104.532C153.63 104.57 153.389 104.607 153.154 104.641C152.92 104.67 152.724 104.696 152.566 104.717C152.196 104.764 151.857 104.843 151.55 104.954C151.248 105.065 151.005 105.224 150.821 105.433C150.642 105.638 150.553 105.911 150.553 106.251C150.553 106.724 150.728 107.082 151.077 107.325C151.426 107.564 151.872 107.683 152.413 107.683ZM159.388 109V99.1818H161.236V100.741H161.338C161.517 100.213 161.832 99.7976 162.284 99.495C162.74 99.1882 163.256 99.0348 163.831 99.0348C163.95 99.0348 164.091 99.0391 164.253 99.0476C164.419 99.0561 164.549 99.0668 164.643 99.0795V100.908C164.566 100.886 164.43 100.863 164.233 100.837C164.037 100.808 163.841 100.793 163.645 100.793C163.194 100.793 162.791 100.888 162.437 101.08C162.088 101.268 161.811 101.53 161.606 101.866C161.402 102.199 161.3 102.578 161.3 103.004V109H159.388ZM171.46 99.1818V100.716H166.097V99.1818H171.46ZM167.535 96.8295H169.446V106.117C169.446 106.488 169.502 106.767 169.612 106.955C169.723 107.138 169.866 107.263 170.041 107.332C170.22 107.396 170.414 107.428 170.622 107.428C170.776 107.428 170.91 107.417 171.025 107.396C171.14 107.374 171.23 107.357 171.294 107.344L171.639 108.923C171.528 108.966 171.37 109.009 171.166 109.051C170.961 109.098 170.705 109.124 170.399 109.128C169.896 109.136 169.427 109.047 168.992 108.859C168.558 108.672 168.206 108.382 167.938 107.99C167.669 107.598 167.535 107.106 167.535 106.513V96.8295ZM177.7 109.198C176.733 109.198 175.9 108.991 175.201 108.578C174.506 108.161 173.969 107.575 173.59 106.82C173.215 106.062 173.027 105.173 173.027 104.155C173.027 103.149 173.215 102.263 173.59 101.496C173.969 100.729 174.498 100.13 175.175 99.6996C175.857 99.2692 176.654 99.054 177.566 99.054C178.12 99.054 178.657 99.1456 179.176 99.3288C179.696 99.5121 180.163 99.7997 180.576 100.192C180.99 100.584 181.316 101.093 181.554 101.719C181.793 102.342 181.912 103.098 181.912 103.989V104.666H174.108V103.234H180.039C180.039 102.732 179.937 102.286 179.733 101.898C179.528 101.506 179.24 101.197 178.87 100.972C178.503 100.746 178.073 100.633 177.578 100.633C177.042 100.633 176.573 100.765 176.172 101.029C175.776 101.289 175.469 101.63 175.252 102.052C175.039 102.469 174.932 102.923 174.932 103.413V104.532C174.932 105.188 175.047 105.746 175.277 106.207C175.512 106.667 175.838 107.018 176.255 107.261C176.673 107.5 177.161 107.619 177.719 107.619C178.081 107.619 178.412 107.568 178.71 107.466C179.008 107.359 179.266 107.202 179.483 106.993C179.701 106.784 179.867 106.526 179.982 106.219L181.791 106.545C181.646 107.078 181.386 107.545 181.011 107.945C180.64 108.342 180.174 108.651 179.611 108.872C179.053 109.089 178.416 109.198 177.7 109.198ZM187.708 109.192C186.916 109.192 186.208 108.989 185.586 108.585C184.968 108.175 184.482 107.594 184.129 106.839C183.779 106.081 183.605 105.171 183.605 104.11C183.605 103.049 183.781 102.141 184.135 101.387C184.493 100.633 184.983 100.055 185.605 99.6548C186.227 99.2543 186.933 99.054 187.721 99.054C188.33 99.054 188.82 99.1562 189.191 99.3608C189.566 99.5611 189.856 99.7955 190.061 100.064C190.269 100.332 190.431 100.569 190.546 100.773H190.661V95.9091H192.573V109H190.706V107.472H190.546C190.431 107.681 190.265 107.92 190.048 108.188C189.835 108.457 189.541 108.691 189.166 108.891C188.791 109.092 188.305 109.192 187.708 109.192ZM188.13 107.562C188.68 107.562 189.144 107.417 189.524 107.127C189.907 106.833 190.197 106.426 190.393 105.906C190.593 105.386 190.693 104.781 190.693 104.091C190.693 103.409 190.595 102.812 190.399 102.301C190.203 101.79 189.916 101.391 189.536 101.106C189.157 100.82 188.688 100.678 188.13 100.678C187.555 100.678 187.075 100.827 186.692 101.125C186.308 101.423 186.019 101.83 185.823 102.346C185.631 102.862 185.535 103.443 185.535 104.091C185.535 104.747 185.633 105.337 185.829 105.862C186.025 106.386 186.315 106.801 186.698 107.108C187.086 107.411 187.563 107.562 188.13 107.562ZM202.921 109.217C202.299 109.217 201.737 109.102 201.234 108.872C200.731 108.638 200.333 108.299 200.039 107.856C199.749 107.413 199.604 106.869 199.604 106.226C199.604 105.672 199.71 105.216 199.923 104.858C200.137 104.5 200.424 104.217 200.786 104.008C201.149 103.799 201.553 103.641 202.001 103.535C202.448 103.428 202.904 103.347 203.369 103.292C203.957 103.224 204.434 103.168 204.801 103.126C205.167 103.079 205.433 103.004 205.6 102.902C205.766 102.8 205.849 102.634 205.849 102.403V102.359C205.849 101.8 205.691 101.368 205.376 101.061C205.065 100.754 204.6 100.601 203.982 100.601C203.339 100.601 202.832 100.744 202.461 101.029C202.095 101.31 201.841 101.624 201.7 101.969L199.904 101.56C200.117 100.963 200.428 100.482 200.838 100.115C201.251 99.7443 201.726 99.4759 202.263 99.3097C202.8 99.1392 203.365 99.054 203.957 99.054C204.349 99.054 204.764 99.1009 205.203 99.1946C205.646 99.2841 206.06 99.4503 206.443 99.6932C206.831 99.9361 207.149 100.283 207.396 100.735C207.643 101.183 207.767 101.764 207.767 102.48V109H205.9V107.658H205.823C205.7 107.905 205.514 108.148 205.267 108.386C205.02 108.625 204.703 108.823 204.315 108.981C203.927 109.138 203.463 109.217 202.921 109.217ZM203.337 107.683C203.865 107.683 204.317 107.579 204.692 107.37C205.071 107.161 205.359 106.888 205.555 106.552C205.755 106.211 205.855 105.847 205.855 105.459V104.193C205.787 104.261 205.655 104.325 205.459 104.385C205.267 104.44 205.048 104.489 204.801 104.532C204.553 104.57 204.313 104.607 204.078 104.641C203.844 104.67 203.648 104.696 203.49 104.717C203.119 104.764 202.781 104.843 202.474 104.954C202.171 105.065 201.928 105.224 201.745 105.433C201.566 105.638 201.477 105.911 201.477 106.251C201.477 106.724 201.651 107.082 202.001 107.325C202.35 107.564 202.796 107.683 203.337 107.683ZM212.223 103.17V109H210.312V99.1818H212.147V100.78H212.268C212.494 100.26 212.848 99.8423 213.329 99.527C213.815 99.2116 214.426 99.054 215.164 99.054C215.833 99.054 216.419 99.1946 216.922 99.4759C217.424 99.7528 217.814 100.166 218.091 100.716C218.368 101.266 218.507 101.945 218.507 102.755V109H216.596V102.985C216.596 102.273 216.41 101.717 216.039 101.317C215.669 100.912 215.159 100.71 214.512 100.71C214.069 100.71 213.674 100.805 213.329 100.997C212.988 101.189 212.718 101.47 212.517 101.841C212.321 102.207 212.223 102.651 212.223 103.17ZM224.745 109.192C223.953 109.192 223.245 108.989 222.623 108.585C222.005 108.175 221.52 107.594 221.166 106.839C220.816 106.081 220.642 105.171 220.642 104.11C220.642 103.049 220.819 102.141 221.172 101.387C221.53 100.633 222.02 100.055 222.642 99.6548C223.265 99.2543 223.97 99.054 224.758 99.054C225.368 99.054 225.858 99.1562 226.228 99.3608C226.603 99.5611 226.893 99.7955 227.098 100.064C227.306 100.332 227.468 100.569 227.583 100.773H227.699V95.9091H229.61V109H227.743V107.472H227.583C227.468 107.681 227.302 107.92 227.085 108.188C226.872 108.457 226.578 108.691 226.203 108.891C225.828 109.092 225.342 109.192 224.745 109.192ZM225.167 107.562C225.717 107.562 226.181 107.417 226.561 107.127C226.944 106.833 227.234 106.426 227.43 105.906C227.63 105.386 227.73 104.781 227.73 104.091C227.73 103.409 227.632 102.812 227.436 102.301C227.24 101.79 226.953 101.391 226.574 101.106C226.194 100.82 225.725 100.678 225.167 100.678C224.592 100.678 224.113 100.827 223.729 101.125C223.346 101.423 223.056 101.83 222.86 102.346C222.668 102.862 222.572 103.443 222.572 104.091C222.572 104.747 222.67 105.337 222.866 105.862C223.062 106.386 223.352 106.801 223.735 107.108C224.123 107.411 224.6 107.562 225.167 107.562ZM244.458 101.579L242.726 101.886C242.654 101.664 242.539 101.453 242.381 101.253C242.228 101.053 242.019 100.888 241.755 100.761C241.49 100.633 241.16 100.569 240.764 100.569C240.223 100.569 239.771 100.69 239.409 100.933C239.047 101.172 238.865 101.481 238.865 101.86C238.865 102.188 238.987 102.452 239.23 102.653C239.473 102.853 239.865 103.017 240.406 103.145L241.966 103.503C242.869 103.712 243.542 104.033 243.985 104.468C244.429 104.903 244.65 105.467 244.65 106.162C244.65 106.75 244.48 107.274 244.139 107.734C243.802 108.19 243.331 108.548 242.726 108.808C242.125 109.068 241.429 109.198 240.636 109.198C239.537 109.198 238.64 108.964 237.945 108.495C237.25 108.022 236.824 107.351 236.667 106.482L238.514 106.2C238.629 106.682 238.865 107.046 239.223 107.293C239.581 107.536 240.048 107.658 240.623 107.658C241.25 107.658 241.75 107.528 242.125 107.268C242.5 107.004 242.688 106.682 242.688 106.303C242.688 105.996 242.573 105.738 242.343 105.529C242.117 105.32 241.77 105.163 241.301 105.056L239.639 104.692C238.723 104.483 238.045 104.151 237.606 103.695C237.172 103.239 236.954 102.661 236.954 101.962C236.954 101.383 237.116 100.876 237.44 100.441C237.764 100.006 238.211 99.6676 238.782 99.4247C239.353 99.1776 240.007 99.054 240.745 99.054C241.806 99.054 242.641 99.2841 243.25 99.7443C243.86 100.2 244.262 100.812 244.458 101.579ZM246.752 109V99.1818H248.663V109H246.752ZM247.717 97.6669C247.384 97.6669 247.099 97.5561 246.86 97.3345C246.626 97.1087 246.509 96.8402 246.509 96.5291C246.509 96.2138 246.626 95.9453 246.86 95.7237C247.099 95.4979 247.384 95.3849 247.717 95.3849C248.049 95.3849 248.333 95.4979 248.567 95.7237C248.806 95.9453 248.925 96.2138 248.925 96.5291C248.925 96.8402 248.806 97.1087 248.567 97.3345C248.333 97.5561 248.049 97.6669 247.717 97.6669ZM251.234 109V99.1818H253.069V100.78H253.19C253.395 100.239 253.729 99.8168 254.194 99.5142C254.658 99.2074 255.214 99.054 255.862 99.054C256.518 99.054 257.068 99.2074 257.511 99.5142C257.958 99.821 258.289 100.243 258.502 100.78H258.604C258.838 100.256 259.211 99.8381 259.723 99.527C260.234 99.2116 260.843 99.054 261.551 99.054C262.441 99.054 263.168 99.3331 263.73 99.8913C264.297 100.45 264.581 101.291 264.581 102.416V109H262.669V102.595C262.669 101.93 262.488 101.449 262.126 101.151C261.764 100.852 261.331 100.703 260.828 100.703C260.206 100.703 259.723 100.895 259.377 101.278C259.032 101.658 258.86 102.146 258.86 102.742V109H256.955V102.474C256.955 101.941 256.789 101.513 256.456 101.189C256.124 100.865 255.691 100.703 255.159 100.703C254.797 100.703 254.462 100.799 254.155 100.991C253.853 101.178 253.608 101.44 253.42 101.777C253.237 102.114 253.145 102.504 253.145 102.947V109H251.234ZM267.142 112.682V99.1818H269.009V100.773H269.169C269.279 100.569 269.439 100.332 269.648 100.064C269.857 99.7955 270.146 99.5611 270.517 99.3608C270.888 99.1562 271.378 99.054 271.987 99.054C272.78 99.054 273.487 99.2543 274.11 99.6548C274.732 100.055 275.22 100.633 275.573 101.387C275.931 102.141 276.11 103.049 276.11 104.11C276.11 105.171 275.933 106.081 275.58 106.839C275.226 107.594 274.74 108.175 274.122 108.585C273.504 108.989 272.799 109.192 272.007 109.192C271.41 109.192 270.922 109.092 270.543 108.891C270.168 108.691 269.874 108.457 269.661 108.188C269.448 107.92 269.284 107.681 269.169 107.472H269.053V112.682H267.142ZM269.015 104.091C269.015 104.781 269.115 105.386 269.316 105.906C269.516 106.426 269.806 106.833 270.185 107.127C270.564 107.417 271.029 107.562 271.578 107.562C272.149 107.562 272.627 107.411 273.01 107.108C273.394 106.801 273.683 106.386 273.879 105.862C274.08 105.337 274.18 104.747 274.18 104.091C274.18 103.443 274.082 102.862 273.886 102.346C273.694 101.83 273.404 101.423 273.017 101.125C272.633 100.827 272.154 100.678 271.578 100.678C271.024 100.678 270.556 100.82 270.172 101.106C269.793 101.391 269.505 101.79 269.309 102.301C269.113 102.812 269.015 103.409 269.015 104.091ZM280.163 95.9091V109H278.252V95.9091H280.163ZM282.734 109V99.1818H284.645V109H282.734ZM283.699 97.6669C283.367 97.6669 283.081 97.5561 282.843 97.3345C282.608 97.1087 282.491 96.8402 282.491 96.5291C282.491 96.2138 282.608 95.9453 282.843 95.7237C283.081 95.4979 283.367 95.3849 283.699 95.3849C284.032 95.3849 284.315 95.4979 284.549 95.7237C284.788 95.9453 284.907 96.2138 284.907 96.5291C284.907 96.8402 284.788 97.1087 284.549 97.3345C284.315 97.5561 284.032 97.6669 283.699 97.6669ZM291.889 99.1818V100.716H286.341V99.1818H291.889ZM287.862 109V98.044C287.862 97.4304 287.996 96.9212 288.265 96.5163C288.533 96.1072 288.889 95.8026 289.332 95.6023C289.775 95.3977 290.257 95.2955 290.777 95.2955C291.16 95.2955 291.488 95.3274 291.761 95.3913C292.034 95.451 292.236 95.5064 292.368 95.5575L291.921 97.1044C291.831 97.0788 291.716 97.049 291.576 97.0149C291.435 96.9766 291.265 96.9574 291.064 96.9574C290.6 96.9574 290.268 97.0724 290.067 97.3026C289.871 97.5327 289.773 97.8651 289.773 98.2997V109H287.862ZM295.069 112.682C294.784 112.682 294.524 112.658 294.289 112.612C294.055 112.569 293.88 112.522 293.765 112.471L294.225 110.905C294.575 110.999 294.886 111.039 295.159 111.026C295.431 111.013 295.672 110.911 295.881 110.719C296.094 110.528 296.281 110.214 296.443 109.78L296.68 109.128L293.088 99.1818H295.133L297.619 106.801H297.722L300.208 99.1818H302.26L298.214 110.31C298.026 110.822 297.788 111.254 297.498 111.608C297.208 111.966 296.863 112.234 296.463 112.413C296.062 112.592 295.597 112.682 295.069 112.682ZM310.028 112.682C309.743 112.682 309.483 112.658 309.248 112.612C309.014 112.569 308.839 112.522 308.724 112.471L309.184 110.905C309.534 110.999 309.845 111.039 310.118 111.026C310.39 111.013 310.631 110.911 310.84 110.719C311.053 110.528 311.24 110.214 311.402 109.78L311.639 109.128L308.047 99.1818H310.092L312.578 106.801H312.681L315.167 99.1818H317.219L313.173 110.31C312.985 110.822 312.747 111.254 312.457 111.608C312.167 111.966 311.822 112.234 311.422 112.413C311.021 112.592 310.556 112.682 310.028 112.682ZM322.817 109.198C321.896 109.198 321.093 108.987 320.407 108.565C319.721 108.143 319.188 107.553 318.809 106.795C318.43 106.036 318.24 105.15 318.24 104.136C318.24 103.117 318.43 102.227 318.809 101.464C319.188 100.701 319.721 100.109 320.407 99.6868C321.093 99.2649 321.896 99.054 322.817 99.054C323.737 99.054 324.541 99.2649 325.227 99.6868C325.913 100.109 326.445 100.701 326.825 101.464C327.204 102.227 327.394 103.117 327.394 104.136C327.394 105.15 327.204 106.036 326.825 106.795C326.445 107.553 325.913 108.143 325.227 108.565C324.541 108.987 323.737 109.198 322.817 109.198ZM322.823 107.594C323.42 107.594 323.914 107.436 324.306 107.121C324.698 106.805 324.988 106.386 325.176 105.862C325.367 105.337 325.463 104.76 325.463 104.129C325.463 103.503 325.367 102.928 325.176 102.403C324.988 101.875 324.698 101.451 324.306 101.131C323.914 100.812 323.42 100.652 322.823 100.652C322.222 100.652 321.724 100.812 321.328 101.131C320.936 101.451 320.644 101.875 320.452 102.403C320.264 102.928 320.171 103.503 320.171 104.129C320.171 104.76 320.264 105.337 320.452 105.862C320.644 106.386 320.936 106.805 321.328 107.121C321.724 107.436 322.222 107.594 322.823 107.594ZM335.746 104.928V99.1818H337.664V109H335.785V107.3H335.683C335.457 107.824 335.094 108.261 334.596 108.61C334.102 108.955 333.486 109.128 332.749 109.128C332.118 109.128 331.56 108.989 331.074 108.712C330.592 108.431 330.213 108.016 329.936 107.466C329.663 106.916 329.527 106.237 329.527 105.427V99.1818H331.438V105.197C331.438 105.866 331.624 106.398 331.994 106.795C332.365 107.191 332.847 107.389 333.439 107.389C333.797 107.389 334.153 107.3 334.506 107.121C334.864 106.942 335.161 106.671 335.395 106.309C335.634 105.947 335.751 105.487 335.746 104.928ZM340.232 109V99.1818H342.079V100.741H342.182C342.361 100.213 342.676 99.7976 343.128 99.495C343.584 99.1882 344.099 99.0348 344.675 99.0348C344.794 99.0348 344.934 99.0391 345.096 99.0476C345.263 99.0561 345.393 99.0668 345.486 99.0795V100.908C345.41 100.886 345.273 100.863 345.077 100.837C344.881 100.808 344.685 100.793 344.489 100.793C344.037 100.793 343.635 100.888 343.281 101.08C342.932 101.268 342.655 101.53 342.45 101.866C342.246 102.199 342.143 102.578 342.143 103.004V109H340.232ZM356.135 109.198C355.168 109.198 354.335 108.991 353.636 108.578C352.942 108.161 352.405 107.575 352.025 106.82C351.65 106.062 351.463 105.173 351.463 104.155C351.463 103.149 351.65 102.263 352.025 101.496C352.405 100.729 352.933 100.13 353.611 99.6996C354.292 99.2692 355.089 99.054 356.001 99.054C356.555 99.054 357.092 99.1456 357.612 99.3288C358.132 99.5121 358.599 99.7997 359.012 100.192C359.425 100.584 359.751 101.093 359.99 101.719C360.229 102.342 360.348 103.098 360.348 103.989V104.666H352.543V103.234H358.475C358.475 102.732 358.373 102.286 358.168 101.898C357.964 101.506 357.676 101.197 357.305 100.972C356.939 100.746 356.508 100.633 356.014 100.633C355.477 100.633 355.008 100.765 354.608 101.029C354.211 101.289 353.905 101.63 353.687 102.052C353.474 102.469 353.368 102.923 353.368 103.413V104.532C353.368 105.188 353.483 105.746 353.713 106.207C353.947 106.667 354.273 107.018 354.691 107.261C355.108 107.5 355.596 107.619 356.155 107.619C356.517 107.619 356.847 107.568 357.145 107.466C357.444 107.359 357.702 107.202 357.919 106.993C358.136 106.784 358.302 106.526 358.417 106.219L360.226 106.545C360.081 107.078 359.822 107.545 359.447 107.945C359.076 108.342 358.609 108.651 358.047 108.872C357.488 109.089 356.851 109.198 356.135 109.198ZM370.586 99.1818L367.026 109H364.98L361.414 99.1818H363.466L365.952 106.737H366.054L368.534 99.1818H370.586ZM376.28 109.198C375.313 109.198 374.48 108.991 373.781 108.578C373.086 108.161 372.549 107.575 372.17 106.82C371.795 106.062 371.607 105.173 371.607 104.155C371.607 103.149 371.795 102.263 372.17 101.496C372.549 100.729 373.078 100.13 373.755 99.6996C374.437 99.2692 375.234 99.054 376.146 99.054C376.7 99.054 377.237 99.1456 377.757 99.3288C378.276 99.5121 378.743 99.7997 379.156 100.192C379.57 100.584 379.896 101.093 380.134 101.719C380.373 102.342 380.492 103.098 380.492 103.989V104.666H372.688V103.234H378.619C378.619 102.732 378.517 102.286 378.313 101.898C378.108 101.506 377.82 101.197 377.45 100.972C377.083 100.746 376.653 100.633 376.159 100.633C375.622 100.633 375.153 100.765 374.752 101.029C374.356 101.289 374.049 101.63 373.832 102.052C373.619 102.469 373.512 102.923 373.512 103.413V104.532C373.512 105.188 373.627 105.746 373.857 106.207C374.092 106.667 374.418 107.018 374.835 107.261C375.253 107.5 375.741 107.619 376.299 107.619C376.661 107.619 376.992 107.568 377.29 107.466C377.588 107.359 377.846 107.202 378.063 106.993C378.281 106.784 378.447 106.526 378.562 106.219L380.371 106.545C380.226 107.078 379.966 107.545 379.591 107.945C379.22 108.342 378.754 108.651 378.191 108.872C377.633 109.089 376.996 109.198 376.28 109.198ZM384.524 103.17V109H382.613V99.1818H384.447V100.78H384.569C384.795 100.26 385.148 99.8423 385.63 99.527C386.116 99.2116 386.727 99.054 387.464 99.054C388.134 99.054 388.719 99.1946 389.222 99.4759C389.725 99.7528 390.115 100.166 390.392 100.716C390.669 101.266 390.808 101.945 390.808 102.755V109H388.896V102.985C388.896 102.273 388.711 101.717 388.34 101.317C387.969 100.912 387.46 100.71 386.812 100.71C386.369 100.71 385.975 100.805 385.63 100.997C385.289 101.189 385.018 101.47 384.818 101.841C384.622 102.207 384.524 102.651 384.524 103.17ZM397.954 99.1818V100.716H392.591V99.1818H397.954ZM394.029 96.8295H395.94V106.117C395.94 106.488 395.996 106.767 396.107 106.955C396.217 107.138 396.36 107.263 396.535 107.332C396.714 107.396 396.908 107.428 397.116 107.428C397.27 107.428 397.404 107.417 397.519 107.396C397.634 107.374 397.724 107.357 397.788 107.344L398.133 108.923C398.022 108.966 397.864 109.009 397.66 109.051C397.455 109.098 397.2 109.124 396.893 109.128C396.39 109.136 395.921 109.047 395.487 108.859C395.052 108.672 394.7 108.382 394.432 107.99C394.163 107.598 394.029 107.106 394.029 106.513V96.8295ZM407.267 101.579L405.535 101.886C405.462 101.664 405.347 101.453 405.19 101.253C405.036 101.053 404.827 100.888 404.563 100.761C404.299 100.633 403.969 100.569 403.572 100.569C403.031 100.569 402.58 100.69 402.217 100.933C401.855 101.172 401.674 101.481 401.674 101.86C401.674 102.188 401.795 102.452 402.038 102.653C402.281 102.853 402.673 103.017 403.214 103.145L404.774 103.503C405.678 103.712 406.351 104.033 406.794 104.468C407.237 104.903 407.459 105.467 407.459 106.162C407.459 106.75 407.288 107.274 406.947 107.734C406.611 108.19 406.14 108.548 405.535 108.808C404.934 109.068 404.237 109.198 403.445 109.198C402.345 109.198 401.448 108.964 400.754 108.495C400.059 108.022 399.633 107.351 399.475 106.482L401.322 106.2C401.438 106.682 401.674 107.046 402.032 107.293C402.39 107.536 402.857 107.658 403.432 107.658C404.058 107.658 404.559 107.528 404.934 107.268C405.309 107.004 405.496 106.682 405.496 106.303C405.496 105.996 405.381 105.738 405.151 105.529C404.925 105.32 404.578 105.163 404.109 105.056L402.447 104.692C401.531 104.483 400.854 104.151 400.415 103.695C399.98 103.239 399.763 102.661 399.763 101.962C399.763 101.383 399.925 100.876 400.249 100.441C400.572 100.006 401.02 99.6676 401.591 99.4247C402.162 99.1776 402.816 99.054 403.553 99.054C404.614 99.054 405.45 99.2841 406.059 99.7443C406.668 100.2 407.071 100.812 407.267 101.579ZM420.952 112.682V107.472H420.837C420.722 107.681 420.556 107.92 420.339 108.188C420.126 108.457 419.832 108.691 419.457 108.891C419.082 109.092 418.596 109.192 417.999 109.192C417.207 109.192 416.499 108.989 415.877 108.585C415.259 108.175 414.773 107.594 414.42 106.839C414.07 106.081 413.896 105.171 413.896 104.11C413.896 103.049 414.072 102.141 414.426 101.387C414.784 100.633 415.274 100.055 415.896 99.6548C416.518 99.2543 417.224 99.054 418.012 99.054C418.621 99.054 419.112 99.1562 419.482 99.3608C419.857 99.5611 420.147 99.7955 420.352 100.064C420.56 100.332 420.722 100.569 420.837 100.773H420.997V99.1818H422.864V112.682H420.952ZM418.421 107.562C418.971 107.562 419.435 107.417 419.815 107.127C420.198 106.833 420.488 106.426 420.684 105.906C420.884 105.386 420.984 104.781 420.984 104.091C420.984 103.409 420.886 102.812 420.69 102.301C420.494 101.79 420.207 101.391 419.827 101.106C419.448 100.82 418.979 100.678 418.421 100.678C417.846 100.678 417.366 100.827 416.983 101.125C416.599 101.423 416.31 101.83 416.114 102.346C415.922 102.862 415.826 103.443 415.826 104.091C415.826 104.747 415.924 105.337 416.12 105.862C416.316 106.386 416.606 106.801 416.989 107.108C417.377 107.411 417.854 107.562 418.421 107.562ZM431.653 104.928V99.1818H433.57V109H431.691V107.3H431.589C431.363 107.824 431.001 108.261 430.502 108.61C430.008 108.955 429.392 109.128 428.655 109.128C428.024 109.128 427.466 108.989 426.98 108.712C426.499 108.431 426.119 108.016 425.842 107.466C425.57 106.916 425.433 106.237 425.433 105.427V99.1818H427.344V105.197C427.344 105.866 427.53 106.398 427.901 106.795C428.271 107.191 428.753 107.389 429.345 107.389C429.703 107.389 430.059 107.3 430.413 107.121C430.771 106.942 431.067 106.671 431.301 106.309C431.54 105.947 431.657 105.487 431.653 104.928ZM436.138 109V99.1818H438.05V109H436.138ZM437.104 97.6669C436.771 97.6669 436.486 97.5561 436.247 97.3345C436.013 97.1087 435.895 96.8402 435.895 96.5291C435.895 96.2138 436.013 95.9453 436.247 95.7237C436.486 95.4979 436.771 95.3849 437.104 95.3849C437.436 95.3849 437.719 95.4979 437.954 95.7237C438.192 95.9453 438.312 96.2138 438.312 96.5291C438.312 96.8402 438.192 97.1087 437.954 97.3345C437.719 97.5561 437.436 97.6669 437.104 97.6669ZM444.756 109.198C443.806 109.198 442.988 108.983 442.302 108.553C441.62 108.118 441.096 107.519 440.729 106.756C440.363 105.994 440.18 105.12 440.18 104.136C440.18 103.138 440.367 102.259 440.742 101.496C441.117 100.729 441.646 100.13 442.327 99.6996C443.009 99.2692 443.813 99.054 444.737 99.054C445.483 99.054 446.148 99.1925 446.732 99.4695C447.315 99.7422 447.786 100.126 448.144 100.62C448.506 101.114 448.722 101.692 448.79 102.352H446.93C446.827 101.892 446.593 101.496 446.227 101.163C445.864 100.831 445.379 100.665 444.769 100.665C444.237 100.665 443.77 100.805 443.369 101.087C442.973 101.364 442.664 101.76 442.442 102.276C442.221 102.787 442.11 103.392 442.11 104.091C442.11 104.807 442.219 105.425 442.436 105.945C442.653 106.464 442.96 106.867 443.357 107.153C443.757 107.438 444.228 107.581 444.769 107.581C445.131 107.581 445.46 107.515 445.754 107.383C446.052 107.246 446.301 107.053 446.501 106.801C446.706 106.55 446.849 106.247 446.93 105.893H448.79C448.722 106.528 448.515 107.095 448.17 107.594C447.825 108.092 447.362 108.484 446.783 108.77C446.207 109.055 445.532 109.198 444.756 109.198ZM452.591 105.67L452.579 103.337H452.911L456.823 99.1818H459.111L454.65 103.912H454.349L452.591 105.67ZM450.834 109V95.9091H452.745V109H450.834ZM457.034 109L453.518 104.334L454.835 102.998L459.38 109H457.034ZM462.764 95.9091V109H460.853V95.9091H462.764ZM466.544 112.682C466.258 112.682 465.998 112.658 465.764 112.612C465.529 112.569 465.355 112.522 465.24 112.471L465.7 110.905C466.049 110.999 466.36 111.039 466.633 111.026C466.906 111.013 467.147 110.911 467.355 110.719C467.569 110.528 467.756 110.214 467.918 109.78L468.154 109.128L464.562 99.1818H466.608L469.094 106.801H469.196L471.683 99.1818H473.735L469.689 110.31C469.501 110.822 469.262 111.254 468.973 111.608C468.683 111.966 468.338 112.234 467.937 112.413C467.537 112.592 467.072 112.682 466.544 112.682Z" fill="black"/>
</g>
<defs>
<clipPath id="clip0_339_3060">
<path d="M0 24C0 10.7452 10.7452 0 24 0H548C561.255 0 572 10.7452 572 24V143H0V24Z" fill="white"/>
</clipPath>
</defs>
</svg>
